<?xml version="1.0" encoding="UTF-8"?>
<!DOCTYPE svg PUBLIC "-//W3C//DTD SVG 1.1//EN" "http://www.w3.org/Graphics/SVG/1.1/DTD/svg11.dtd">
<!-- Creator: CorelDRAW -->
<svg xmlns="http://www.w3.org/2000/svg" xml:space="preserve" width="47.2096mm" height="16.5228mm" version="1.1" style="shape-rendering:geometricPrecision; text-rendering:geometricPrecision; image-rendering:optimizeQuality; fill-rule:evenodd; clip-rule:evenodd"
viewBox="0 0 17.54 6.14"
 xmlns:xlink="http://www.w3.org/1999/xlink"
 xmlns:xodm="http://www.corel.com/coreldraw/odm/2003">
 <defs>
  <style type="text/css">
   <![CDATA[
    .fil0 {fill:white;fill-rule:nonzero}
   ]]>
  </style>
 </defs>
 <g id="Camada_x0020_1">
  <metadata id="CorelCorpID_0Corel-Layer"/>
  <g id="_2080540351680">
   <path class="fil0" d="M9.89 4.87c-1.01,0 -1.67,-0.92 -1.67,-2.37 0,-1.54 0.6,-2.41 1.63,-2.41 0.99,0 1.66,0.93 1.66,2.38 0,1.55 -0.59,2.41 -1.62,2.41zm5.09 0c-1.01,0 -1.67,-0.92 -1.67,-2.37 0,-1.54 0.6,-2.41 1.63,-2.41 0.89,0 1.52,0.75 1.64,1.93l0.93 0c-0.2,-1.21 -1.21,-2.02 -2.51,-2.02 -1.27,0 -2.34,0.94 -2.57,2.04 -0.19,-1.23 -1.2,-2.04 -2.52,-2.04 -1.44,0 -2.62,1.21 -2.62,2.49 0,1.46 1.08,2.46 2.54,2.46 1.29,0 2.35,-0.92 2.58,-2.02 0.19,1.22 1.2,2.02 2.51,2.02 1.23,0 2.26,-0.84 2.55,-1.88l-0.9 0c-0.14,1.16 -0.7,1.8 -1.59,1.8z"/>
   <path class="fil0" d="M5.07 0.18l0.27 0c0.36,0.03 0.41,0.05 0.41,0.1l0 4.29c0,0.93 -0.24,1.5 -0.68,1.46 0.34,-0.3 0.18,-0.86 -0.28,-0.86 -0.29,0 -0.49,0.21 -0.49,0.46 0,0.3 0.27,0.51 0.66,0.51 0.74,0 1.63,-0.44 1.63,-1.5l0 -4.34c0,-0.05 0.1,-0.09 0.36,-0.12l0.06 -0.01 0.26 0 0 -0.07 -2.21 0 0 0.07z"/>
   <path class="fil0" d="M2.03 4.77l-0.51 -0.15 0 -4.43 0.42 0c1.37,0 1.94,1.06 1.94,2.38 0,1.15 -0.61,2.19 -1.85,2.2zm0.06 -4.68c0.02,0 -0.92,0.01 -1.55,0.01l-0.53 0 0 0.07 0.24 0c0.37,0.04 0.41,0.05 0.41,0.1l0 4.37c0,0.05 -0.09,0.09 -0.36,0.12l-0.02 0 -0.28 0 0 0.06 -0.01 0.01 0.01 0 1.38 0 0.52 0c1.85,0 2.89,-1.11 2.89,-2.44 0,-1.39 -0.88,-2.34 -2.71,-2.32z"/>
   <path class="fil0" d="M14.24 2.83l-0.13 0 0.23 -0.61 0.13 0 0.23 0.61 -0.13 0 -0.04 -0.1 -0.25 0 -0.04 0.1zm0.16 -0.46l-0 0 -0.08 0.24 0.17 0 -0.08 -0.24z"/>
   <path class="fil0" d="M15.02 2.6l0 -0.11 0.26 0c0,0.01 0,0.02 0,0.03 0,0.09 -0.03,0.17 -0.09,0.23 -0.06,0.06 -0.13,0.09 -0.22,0.09 -0.09,0 -0.17,-0.03 -0.22,-0.09 -0.06,-0.06 -0.09,-0.13 -0.09,-0.23 0,-0.09 0.03,-0.17 0.09,-0.23 0.06,-0.06 0.13,-0.09 0.22,-0.09 0.07,0 0.14,0.02 0.19,0.06 0.05,0.04 0.09,0.1 0.1,0.17l-0.13 0c-0.01,-0.03 -0.03,-0.06 -0.06,-0.08 -0.03,-0.02 -0.06,-0.03 -0.1,-0.03 -0.06,0 -0.1,0.02 -0.13,0.05 -0.03,0.04 -0.05,0.08 -0.05,0.14 0,0.06 0.02,0.11 0.05,0.14 0.03,0.04 0.08,0.05 0.13,0.05 0.04,0 0.08,-0.01 0.11,-0.03 0.03,-0.02 0.05,-0.05 0.06,-0.09l-0.13 0zm0.76 0.11l0 0.12 -0.44 0 0 -0.61 0.44 0 0 0.12 -0.31 0 0 0.13 0.3 0 0 0.12 -0.3 0 0 0.14 0.31 0zm0.19 -0.29l0 0.4 -0.12 0 0 -0.61 0.13 0 0.27 0.4 0 -0.4 0.12 0 0 0.61 -0.13 0 -0.27 -0.4zm0.76 -0.22c0.08,0 0.14,0.02 0.2,0.06 0.05,0.04 0.09,0.1 0.1,0.17l-0.13 0c-0.01,-0.04 -0.03,-0.07 -0.06,-0.09 -0.03,-0.02 -0.06,-0.03 -0.1,-0.03 -0.06,0 -0.1,0.02 -0.13,0.05 -0.03,0.04 -0.05,0.08 -0.05,0.14 0,0.06 0.02,0.11 0.05,0.14 0.03,0.04 0.07,0.05 0.13,0.05 0.04,0 0.08,-0.01 0.1,-0.03 0.03,-0.02 0.05,-0.05 0.06,-0.09l0.13 0c-0.01,0.07 -0.04,0.13 -0.1,0.17 -0.05,0.04 -0.12,0.06 -0.2,0.06 -0.09,0 -0.16,-0.03 -0.22,-0.09 -0.06,-0.06 -0.09,-0.13 -0.09,-0.23 0,-0.09 0.03,-0.17 0.09,-0.23 0.06,-0.06 0.13,-0.09 0.22,-0.09z"/>
   <polygon class="fil0" points="17.4,2.22 17.54,2.22 17.32,2.62 17.32,2.83 17.19,2.83 17.19,2.62 16.97,2.22 17.11,2.22 17.26,2.49 17.26,2.49 "/>
  </g>
 </g>
</svg>
