<?xml version="1.0" encoding="UTF-8"?>
<!DOCTYPE svg PUBLIC "-//W3C//DTD SVG 1.1//EN" "http://www.w3.org/Graphics/SVG/1.1/DTD/svg11.dtd">
<!-- Creator: CorelDRAW -->
<svg xmlns="http://www.w3.org/2000/svg" xml:space="preserve" width="48.8091mm" height="15.2528mm" version="1.1" style="shape-rendering:geometricPrecision; text-rendering:geometricPrecision; image-rendering:optimizeQuality; fill-rule:evenodd; clip-rule:evenodd"
viewBox="0 0 18.96 5.93"
 xmlns:xlink="http://www.w3.org/1999/xlink"
 xmlns:xodm="http://www.corel.com/coreldraw/odm/2003">
 <defs>
  <style type="text/css">
   <![CDATA[
    .fil0 {fill:white;fill-rule:nonzero}
   ]]>
  </style>
 </defs>
 <g id="Camada_x0020_1">
  <metadata id="CorelCorpID_0Corel-Layer"/>
  <g id="_2080385993744">
   <path class="fil0" d="M0.22 5.63c0,-0.05 -0.03,-0.07 -0.1,-0.07 -0.02,0 -0.04,0 -0.06,0 0,0.04 0,0.08 0,0.14 0.01,0 0.02,0 0.03,0 0.08,0 0.12,-0.03 0.12,-0.08zm0.09 0.28l-0.06 0c-0.02,-0.06 -0.03,-0.1 -0.04,-0.12 -0.01,-0.02 -0.02,-0.04 -0.04,-0.05 -0.01,-0.01 -0.03,-0.01 -0.06,-0.01 -0.02,0 -0.03,0 -0.05,0 0,0.07 0,0.12 0,0.17l-0.06 0c0,-0.06 0,-0.13 0,-0.21 0,-0.07 -0,-0.13 -0,-0.19l0.04 0c0.01,0 0.02,-0 0.03,-0 0.01,-0 0.03,-0 0.05,-0 0.09,0 0.13,0.03 0.13,0.09 0,0.05 -0.02,0.09 -0.07,0.11l0 0c0.02,0.01 0.04,0.02 0.05,0.05 0.01,0.02 0.03,0.07 0.06,0.15z"/>
   <path class="fil0" d="M0.77 5.91l-0.06 0c0,-0.07 0,-0.13 0,-0.21 0,-0.07 -0,-0.13 -0,-0.19l0.06 0c-0,0.06 -0,0.12 -0,0.19 0,0.07 0,0.14 0,0.21z"/>
   <path class="fil0" d="M1.5 5.72c0,-0.05 -0.01,-0.09 -0.04,-0.12 -0.03,-0.03 -0.06,-0.04 -0.1,-0.04 -0.03,0 -0.06,0.02 -0.09,0.05 -0.03,0.03 -0.04,0.07 -0.04,0.12 0,0.05 0.01,0.09 0.04,0.12 0.03,0.03 0.06,0.04 0.1,0.04 0.03,0 0.06,-0.02 0.09,-0.05 0.03,-0.03 0.04,-0.07 0.04,-0.12zm0.05 -0.01c0,0.07 -0.02,0.12 -0.06,0.16 -0.04,0.04 -0.08,0.06 -0.13,0.06 -0.05,0 -0.09,-0.02 -0.13,-0.05 -0.04,-0.04 -0.05,-0.08 -0.05,-0.15 0,-0.07 0.02,-0.12 0.06,-0.16 0.04,-0.04 0.08,-0.06 0.13,-0.06 0.05,0 0.09,0.02 0.13,0.05 0.04,0.04 0.05,0.08 0.05,0.15z"/>
   <path class="fil0" d="M2.72 5.91c-0.03,0.01 -0.07,0.02 -0.1,0.02 -0.07,0 -0.12,-0.02 -0.16,-0.06 -0.04,-0.04 -0.05,-0.08 -0.05,-0.14 0,-0.06 0.02,-0.11 0.06,-0.15 0.04,-0.04 0.09,-0.06 0.16,-0.06 0.03,0 0.05,0 0.07,0.01l-0.01 0.05c-0.03,-0.01 -0.06,-0.01 -0.08,-0.01 -0.05,0 -0.09,0.01 -0.11,0.04 -0.03,0.03 -0.04,0.07 -0.04,0.11 0,0.04 0.01,0.08 0.04,0.12 0.03,0.03 0.07,0.05 0.13,0.05 0.01,0 0.02,-0 0.04,-0 -0,-0.02 -0.01,-0.05 -0.01,-0.07 0,-0.02 -0,-0.05 -0,-0.07l0.06 0c-0,0.03 -0,0.05 -0,0.08 0,0.01 0,0.04 0,0.09z"/>
   <path class="fil0" d="M3.34 5.63c0,-0.05 -0.03,-0.07 -0.1,-0.07 -0.02,0 -0.04,0 -0.06,0 0,0.04 0,0.08 0,0.14 0.01,0 0.02,0 0.03,0 0.08,0 0.12,-0.03 0.12,-0.08zm0.09 0.28l-0.06 0c-0.02,-0.06 -0.03,-0.1 -0.04,-0.12 -0.01,-0.02 -0.02,-0.04 -0.04,-0.05 -0.01,-0.01 -0.03,-0.01 -0.06,-0.01 -0.02,0 -0.03,0 -0.05,0 0,0.07 0,0.12 0,0.17l-0.06 0c0,-0.06 0,-0.13 0,-0.21 0,-0.07 -0,-0.13 -0,-0.19l0.04 0c0.01,0 0.02,-0 0.03,-0 0.01,-0 0.03,-0 0.05,-0 0.09,0 0.13,0.03 0.13,0.09 0,0.05 -0.02,0.09 -0.07,0.11l0 0c0.02,0.01 0.04,0.02 0.05,0.05 0.01,0.02 0.03,0.07 0.06,0.15z"/>
   <path class="fil0" d="M4.05 5.75c-0.05,-0.12 -0.07,-0.18 -0.07,-0.19l-0 0c0,0.01 -0.02,0.07 -0.07,0.19l0.15 0zm0.12 0.17l-0.06 0c0,-0.01 -0.01,-0.06 -0.04,-0.13l-0.18 0c-0.03,0.07 -0.04,0.11 -0.04,0.13l-0.06 0c0,-0.01 0.03,-0.07 0.08,-0.19 0.05,-0.12 0.08,-0.19 0.08,-0.2l0.07 0c0,0.01 0.02,0.08 0.07,0.2 0.05,0.12 0.07,0.19 0.07,0.2z"/>
   <path class="fil0" d="M4.85 5.91l-0.04 0c0,-0 -0.03,-0.05 -0.1,-0.15 -0.07,-0.1 -0.11,-0.16 -0.12,-0.19l-0 0c0,0.05 0.01,0.09 0.01,0.13 0,0.07 0,0.14 0,0.21l-0.05 0c0,-0.07 0.01,-0.13 0.01,-0.21 0,-0.07 -0,-0.13 -0.01,-0.19l0.06 0c0,0.01 0.03,0.05 0.09,0.14 0.06,0.09 0.1,0.15 0.11,0.18l0 0c-0,-0.05 -0.01,-0.09 -0.01,-0.13 0,-0.07 -0,-0.14 -0,-0.19l0.05 0c-0,0.05 -0.01,0.12 -0.01,0.19 0,0.07 0,0.14 0.01,0.21z"/>
   <path class="fil0" d="M5.55 5.72c0,-0.04 -0.01,-0.08 -0.04,-0.11 -0.03,-0.03 -0.07,-0.05 -0.13,-0.05 -0.01,0 -0.02,0 -0.03,0 0,0.05 0,0.1 0,0.15 0,0.05 0,0.11 0,0.17 0.02,0 0.03,0 0.05,0 0.05,0 0.09,-0.02 0.12,-0.05 0.03,-0.03 0.04,-0.07 0.04,-0.11zm0.05 -0.01c0,0.06 -0.02,0.11 -0.06,0.15 -0.04,0.04 -0.09,0.06 -0.15,0.06 -0.02,0 -0.06,-0 -0.11,-0 0,-0.06 0,-0.13 0,-0.21 0,-0.07 -0,-0.13 -0,-0.19l0.03 0c0.01,0 0.02,-0 0.04,-0 0.02,-0 0.03,-0 0.03,-0 0.07,0 0.12,0.02 0.16,0.05 0.03,0.04 0.05,0.08 0.05,0.13z"/>
   <path class="fil0" d="M6.26 5.87l-0 0.05 -0.25 0c0,-0.06 0,-0.13 0,-0.21 0,-0.07 -0,-0.13 -0,-0.19l0.23 0 -0 0.05c-0.06,-0 -0.11,-0 -0.18,-0 0,0.03 0,0.07 0,0.13 0.05,0 0.1,-0 0.14,-0l0 0.05c-0.04,-0 -0.09,-0 -0.14,-0 0,0.05 0,0.1 0,0.15 0.07,0 0.13,-0 0.19,-0z"/>
   <path class="fil0" d="M7.38 5.72c0,-0.04 -0.01,-0.08 -0.04,-0.11 -0.03,-0.03 -0.07,-0.05 -0.13,-0.05 -0.01,0 -0.02,0 -0.03,0 0,0.05 0,0.1 0,0.15 0,0.05 0,0.11 0,0.17 0.02,0 0.03,0 0.05,0 0.05,0 0.09,-0.02 0.12,-0.05 0.03,-0.03 0.04,-0.07 0.04,-0.11zm0.05 -0.01c0,0.06 -0.02,0.11 -0.06,0.15 -0.04,0.04 -0.09,0.06 -0.15,0.06 -0.02,0 -0.06,-0 -0.11,-0 0,-0.06 0,-0.13 0,-0.21 0,-0.07 -0,-0.13 -0,-0.19l0.03 0c0.01,0 0.02,-0 0.04,-0 0.02,-0 0.03,-0 0.03,-0 0.07,0 0.12,0.02 0.16,0.05 0.03,0.04 0.05,0.08 0.05,0.13z"/>
   <path class="fil0" d="M8.14 5.72c0,-0.05 -0.01,-0.09 -0.04,-0.12 -0.03,-0.03 -0.06,-0.04 -0.1,-0.04 -0.03,0 -0.06,0.02 -0.09,0.05 -0.03,0.03 -0.04,0.07 -0.04,0.12 0,0.05 0.01,0.09 0.04,0.12 0.03,0.03 0.06,0.04 0.1,0.04 0.03,0 0.06,-0.02 0.09,-0.05 0.03,-0.03 0.04,-0.07 0.04,-0.12zm0.05 -0.01c0,0.07 -0.02,0.12 -0.06,0.16 -0.04,0.04 -0.08,0.06 -0.13,0.06 -0.05,0 -0.09,-0.02 -0.13,-0.05 -0.04,-0.04 -0.05,-0.08 -0.05,-0.15 0,-0.07 0.02,-0.12 0.06,-0.16 0.04,-0.04 0.08,-0.06 0.13,-0.06 0.05,0 0.09,0.02 0.13,0.05 0.04,0.04 0.05,0.08 0.05,0.15z"/>
   <path class="fil0" d="M9.3 5.81c0,0.07 -0.05,0.11 -0.16,0.11 -0.04,0 -0.07,-0 -0.1,-0.01l0.01 -0.05c0.03,0.01 0.07,0.02 0.1,0.02 0.07,0 0.1,-0.02 0.1,-0.06 0,-0.02 -0.01,-0.04 -0.03,-0.05 -0.01,-0.01 -0.04,-0.02 -0.07,-0.04 -0.04,-0.02 -0.06,-0.03 -0.08,-0.05 -0.02,-0.02 -0.03,-0.04 -0.03,-0.07 0,-0.03 0.01,-0.05 0.03,-0.07 0.02,-0.02 0.06,-0.03 0.1,-0.03 0.05,0 0.08,0 0.1,0.01l-0.01 0.05c-0.03,-0.01 -0.06,-0.01 -0.1,-0.01 -0.05,0 -0.08,0.02 -0.08,0.05 0,0.02 0.01,0.03 0.02,0.04 0.01,0.01 0.03,0.02 0.06,0.03 0.04,0.02 0.07,0.03 0.08,0.05 0.03,0.02 0.04,0.05 0.04,0.08z"/>
   <path class="fil0" d="M10.02 5.52c-0,0.04 -0,0.07 -0,0.11 -0,0.03 -0,0.06 -0,0.09 0,0.14 -0.05,0.2 -0.16,0.2 -0.03,0 -0.05,-0 -0.07,-0.01 -0.02,-0.01 -0.04,-0.02 -0.05,-0.04 -0.01,-0.02 -0.02,-0.04 -0.03,-0.06 -0.01,-0.03 -0.01,-0.05 -0.01,-0.09 0,-0.03 -0,-0.06 -0,-0.1 -0,-0.03 -0,-0.07 -0,-0.11l0.06 0c-0,0.08 -0,0.14 -0,0.18 0,0.04 0,0.06 0.01,0.09 0,0.02 0.01,0.04 0.02,0.06 0.01,0.01 0.02,0.03 0.03,0.03 0.01,0.01 0.03,0.01 0.05,0.01 0.02,0 0.04,-0 0.05,-0.01 0.01,-0.01 0.02,-0.02 0.03,-0.03 0.01,-0.01 0.01,-0.03 0.02,-0.05 0,-0.02 0.01,-0.05 0.01,-0.09 0,-0.02 -0,-0.05 -0,-0.08 -0,-0.03 -0,-0.06 -0,-0.1l0.06 0z"/>
   <path class="fil0" d="M10.7 5.87l-0 0.04 -0.24 0c0,-0.05 0,-0.12 0,-0.21 0,-0.08 -0,-0.14 -0,-0.19l0.06 0c-0,0.04 -0,0.1 -0,0.19 0,0.07 -0,0.12 -0,0.17 0.06,0 0.12,-0 0.19,-0z"/>
   <path class="fil0" d="M11.97 5.91l-0.06 0c0,-0.05 -0,-0.11 -0.01,-0.2 -0.01,-0.09 -0.01,-0.14 -0.01,-0.15l-0 0c-0.02,0.07 -0.05,0.14 -0.08,0.21 -0.03,0.08 -0.05,0.12 -0.05,0.14l-0.04 0c0,-0.01 -0.01,-0.06 -0.04,-0.14 -0.03,-0.08 -0.05,-0.13 -0.06,-0.16 -0.01,-0.03 -0.01,-0.04 -0.02,-0.06l-0 0c-0,0.03 -0,0.08 -0.01,0.17 -0.01,0.08 -0.01,0.14 -0.01,0.18l-0.05 0c0,-0 0.01,-0.06 0.02,-0.17 0.01,-0.11 0.02,-0.19 0.02,-0.23l0.08 0c0,0.02 0.02,0.08 0.05,0.17 0.03,0.09 0.05,0.14 0.05,0.16l0 0c0,-0.02 0.02,-0.07 0.05,-0.16 0.04,-0.09 0.05,-0.14 0.05,-0.17l0.08 0c0,0.04 0,0.12 0.01,0.23 0.01,0.11 0.01,0.16 0.01,0.17z"/>
   <path class="fil0" d="M12.69 5.72c0,-0.05 -0.01,-0.09 -0.04,-0.12 -0.03,-0.03 -0.06,-0.04 -0.1,-0.04 -0.03,0 -0.06,0.02 -0.09,0.05 -0.03,0.03 -0.04,0.07 -0.04,0.12 0,0.05 0.01,0.09 0.04,0.12 0.03,0.03 0.06,0.04 0.1,0.04 0.03,0 0.06,-0.02 0.09,-0.05 0.03,-0.03 0.04,-0.07 0.04,-0.12zm0.05 -0.01c0,0.07 -0.02,0.12 -0.06,0.16 -0.04,0.04 -0.08,0.06 -0.13,0.06 -0.05,0 -0.09,-0.02 -0.13,-0.05 -0.04,-0.04 -0.05,-0.08 -0.05,-0.15 0,-0.07 0.02,-0.12 0.06,-0.16 0.04,-0.04 0.08,-0.06 0.13,-0.06 0.05,0 0.09,0.02 0.13,0.05 0.04,0.04 0.05,0.08 0.05,0.15z"/>
   <path class="fil0" d="M13.39 5.81c0,0.07 -0.05,0.11 -0.16,0.11 -0.04,0 -0.07,-0 -0.1,-0.01l0.01 -0.05c0.03,0.01 0.07,0.02 0.1,0.02 0.07,0 0.1,-0.02 0.1,-0.06 0,-0.02 -0.01,-0.04 -0.03,-0.05 -0.01,-0.01 -0.04,-0.02 -0.07,-0.04 -0.04,-0.02 -0.06,-0.03 -0.08,-0.05 -0.02,-0.02 -0.03,-0.04 -0.03,-0.07 0,-0.03 0.01,-0.05 0.03,-0.07 0.02,-0.02 0.06,-0.03 0.1,-0.03 0.05,0 0.08,0 0.1,0.01l-0.01 0.05c-0.03,-0.01 -0.06,-0.01 -0.1,-0.01 -0.05,0 -0.08,0.02 -0.08,0.05 0,0.02 0.01,0.03 0.02,0.04 0.01,0.01 0.03,0.02 0.06,0.03 0.04,0.02 0.07,0.03 0.08,0.05 0.03,0.02 0.04,0.05 0.04,0.08z"/>
   <path class="fil0" d="M14.05 5.52l-0 0.04c-0.04,-0 -0.08,-0 -0.12,-0 -0,0.04 -0,0.09 -0,0.15 0,0.07 0,0.13 0,0.21l-0.06 0c0,-0.07 0,-0.14 0,-0.21 0,-0.06 -0,-0.11 -0,-0.15 -0.03,0 -0.07,0 -0.13,0l0 -0.04 0.3 0z"/>
   <path class="fil0" d="M14.64 5.63c0,-0.05 -0.03,-0.07 -0.1,-0.07 -0.02,0 -0.04,0 -0.06,0 0,0.04 0,0.08 0,0.14 0.01,0 0.02,0 0.03,0 0.08,0 0.12,-0.03 0.12,-0.08zm0.09 0.28l-0.06 0c-0.02,-0.06 -0.03,-0.1 -0.04,-0.12 -0.01,-0.02 -0.02,-0.04 -0.04,-0.05 -0.01,-0.01 -0.03,-0.01 -0.06,-0.01 -0.02,0 -0.03,0 -0.05,0 0,0.07 0,0.12 0,0.17l-0.06 0c0,-0.06 0,-0.13 0,-0.21 0,-0.07 -0,-0.13 -0,-0.19l0.04 0c0.01,0 0.02,-0 0.03,-0 0.01,-0 0.03,-0 0.05,-0 0.09,0 0.13,0.03 0.13,0.09 0,0.05 -0.02,0.09 -0.07,0.11l0 0c0.02,0.01 0.04,0.02 0.05,0.05 0.01,0.02 0.03,0.07 0.06,0.15z"/>
   <path class="fil0" d="M15.34 5.75c-0.05,-0.12 -0.07,-0.18 -0.07,-0.19l-0 0c0,0.01 -0.02,0.07 -0.07,0.19l0.15 0zm0.12 0.17l-0.06 0c0,-0.01 -0.01,-0.06 -0.04,-0.13l-0.18 0c-0.03,0.07 -0.04,0.11 -0.04,0.13l-0.06 0c0,-0.01 0.03,-0.07 0.08,-0.19 0.05,-0.12 0.08,-0.19 0.08,-0.2l0.07 0c0,0.01 0.02,0.08 0.07,0.2 0.05,0.12 0.07,0.19 0.07,0.2z"/>
   <path class="fil0" d="M16.73 5.91l-0.06 0c0,-0.05 -0,-0.11 -0.01,-0.2 -0.01,-0.09 -0.01,-0.14 -0.01,-0.15l-0 0c-0.02,0.07 -0.05,0.14 -0.08,0.21 -0.03,0.08 -0.05,0.12 -0.05,0.14l-0.04 0c0,-0.01 -0.01,-0.06 -0.04,-0.14 -0.03,-0.08 -0.05,-0.13 -0.06,-0.16 -0.01,-0.03 -0.01,-0.04 -0.02,-0.06l-0 0c-0,0.03 -0,0.08 -0.01,0.17 -0.01,0.08 -0.01,0.14 -0.01,0.18l-0.05 0c0,-0 0.01,-0.06 0.02,-0.17 0.01,-0.11 0.02,-0.19 0.02,-0.23l0.08 0c0,0.02 0.02,0.08 0.05,0.17 0.03,0.09 0.05,0.14 0.05,0.16l0 0c0,-0.02 0.02,-0.07 0.05,-0.16 0.04,-0.09 0.05,-0.14 0.05,-0.17l0.08 0c0,0.04 0,0.12 0.01,0.23 0.01,0.11 0.01,0.16 0.01,0.17z"/>
   <path class="fil0" d="M17.45 5.72c0,-0.05 -0.01,-0.09 -0.04,-0.12 -0.03,-0.03 -0.06,-0.04 -0.09,-0.04 -0.03,0 -0.06,0.02 -0.09,0.05 -0.03,0.03 -0.04,0.07 -0.04,0.12 0,0.05 0.01,0.09 0.04,0.12 0.03,0.03 0.06,0.04 0.1,0.04 0.03,0 0.06,-0.02 0.09,-0.05 0.03,-0.03 0.04,-0.07 0.04,-0.12zm0.05 -0.01c0,0.07 -0.02,0.12 -0.06,0.16 -0.04,0.04 -0.08,0.06 -0.13,0.06 -0.05,0 -0.09,-0.02 -0.13,-0.05 -0.04,-0.04 -0.05,-0.08 -0.05,-0.15 0,-0.07 0.02,-0.12 0.06,-0.16 0.04,-0.04 0.08,-0.06 0.13,-0.06 0.05,0 0.09,0.02 0.13,0.05 0.04,0.04 0.05,0.08 0.05,0.15z"/>
   <path class="fil0" d="M18.18 5.72c0,-0.04 -0.01,-0.08 -0.04,-0.11 -0.03,-0.03 -0.07,-0.05 -0.13,-0.05 -0.01,0 -0.02,0 -0.03,0 0,0.05 0,0.1 0,0.15 0,0.05 0,0.11 0,0.17 0.02,0 0.03,0 0.05,0 0.05,0 0.09,-0.02 0.12,-0.05 0.03,-0.03 0.04,-0.07 0.04,-0.11zm0.05 -0.01c0,0.06 -0.02,0.11 -0.06,0.15 -0.04,0.04 -0.09,0.06 -0.15,0.06 -0.02,0 -0.06,-0 -0.11,-0 0,-0.06 0,-0.13 0,-0.21 0,-0.07 -0,-0.13 -0,-0.19l0.03 0c0.01,0 0.02,-0 0.04,-0 0.02,-0 0.03,-0 0.03,-0 0.07,0 0.12,0.02 0.16,0.05 0.03,0.04 0.05,0.08 0.05,0.13z"/>
   <path class="fil0" d="M18.85 5.75c-0.05,-0.12 -0.07,-0.18 -0.07,-0.19l-0 0c0,0.01 -0.02,0.07 -0.07,0.19l0.15 0zm0.12 0.17l-0.06 0c0,-0.01 -0.01,-0.06 -0.04,-0.13l-0.18 0c-0.03,0.07 -0.04,0.11 -0.04,0.13l-0.06 0c0,-0.01 0.03,-0.07 0.08,-0.19 0.05,-0.12 0.08,-0.19 0.08,-0.2l0.07 0c0,0.01 0.02,0.08 0.07,0.2 0.05,0.12 0.07,0.19 0.07,0.2z"/>
   <path class="fil0" d="M1.22 2.22l0.91 0c0.25,0 0.43,-0.05 0.54,-0.14 0.12,-0.09 0.17,-0.24 0.17,-0.44 0,-0.18 -0.06,-0.31 -0.17,-0.4 -0.11,-0.09 -0.28,-0.13 -0.52,-0.13l-0.94 0 0 1.11zm-1.22 2.79l0 -4.88 2.29 0c0.61,0 1.05,0.11 1.34,0.33 0.29,0.22 0.43,0.56 0.43,1.03 0,0.27 -0.06,0.51 -0.18,0.7 -0.12,0.2 -0.31,0.36 -0.57,0.49 0.21,0.08 0.36,0.19 0.44,0.33 0.09,0.14 0.14,0.39 0.15,0.74 0.01,0.1 0.01,0.23 0.02,0.4 0.02,0.39 0.08,0.62 0.2,0.68l0 0.17 -1.28 0c-0.06,-0.17 -0.1,-0.41 -0.11,-0.71 -0.01,-0.3 -0.02,-0.49 -0.03,-0.57 -0.02,-0.19 -0.08,-0.33 -0.19,-0.42 -0.11,-0.09 -0.27,-0.13 -0.48,-0.13l-0.82 0 0 1.83 -1.22 0z"/>
   <path class="fil0" d="M4.05 3.39l1.18 0c0.01,0.28 0.09,0.49 0.24,0.63 0.15,0.14 0.37,0.21 0.67,0.21 0.25,0 0.44,-0.04 0.58,-0.13 0.14,-0.08 0.2,-0.2 0.2,-0.35 0,-0.08 -0.02,-0.15 -0.05,-0.21 -0.03,-0.06 -0.08,-0.11 -0.14,-0.14 -0.09,-0.05 -0.31,-0.12 -0.65,-0.23 -0.35,-0.1 -0.64,-0.2 -0.88,-0.3 -0.34,-0.14 -0.61,-0.32 -0.78,-0.55 -0.18,-0.23 -0.27,-0.5 -0.27,-0.8 0,-0.47 0.17,-0.84 0.51,-1.11 0.34,-0.28 0.81,-0.41 1.39,-0.41 0.58,0 1.03,0.14 1.37,0.43 0.34,0.29 0.51,0.68 0.51,1.17l-1.15 0c-0.03,-0.23 -0.1,-0.4 -0.24,-0.5 -0.13,-0.11 -0.32,-0.16 -0.57,-0.16 -0.2,0 -0.36,0.04 -0.48,0.12 -0.12,0.08 -0.19,0.19 -0.19,0.32 0,0.22 0.29,0.42 0.88,0.61 0.11,0.04 0.19,0.06 0.24,0.08l0.05 0.02c0.61,0.2 0.98,0.36 1.14,0.49 0.15,0.13 0.27,0.28 0.35,0.45 0.08,0.17 0.12,0.37 0.12,0.58 0,0.49 -0.18,0.86 -0.55,1.14 -0.36,0.27 -0.88,0.41 -1.53,0.41 -0.62,0 -1.09,-0.15 -1.42,-0.44 -0.32,-0.29 -0.51,-0.73 -0.54,-1.32z"/>
   <path class="fil0" d="M8.22 5.02l0 -4.88 1.69 0 0.63 2.38c0.06,0.21 0.11,0.41 0.15,0.61 0.05,0.2 0.09,0.39 0.12,0.58 0.04,-0.2 0.09,-0.41 0.14,-0.62 0.05,-0.22 0.11,-0.45 0.18,-0.7l0.59 -2.24 1.68 0 0 4.88 -1.12 0 0 -2.16c0,-0.15 0,-0.37 0.01,-0.64 0.01,-0.28 0.02,-0.59 0.03,-0.95l-0.92 3.76 -1.21 0 -0.9 -3.76c0.02,0.43 0.03,0.82 0.04,1.17 0.01,0.35 0.01,0.62 0.01,0.81l0 1.78 -1.13 0z"/>
   <path class="fil0" d="M13.74 5.02l0 -4.88 1.69 0 0.63 2.38c0.06,0.21 0.11,0.41 0.15,0.61 0.05,0.2 0.09,0.39 0.12,0.58 0.04,-0.2 0.09,-0.41 0.14,-0.62 0.05,-0.22 0.11,-0.45 0.18,-0.7l0.59 -2.24 1.68 0 0 4.88 -1.12 0 0 -2.16c0,-0.15 0,-0.37 0.01,-0.64 0.01,-0.28 0.02,-0.59 0.03,-0.95l-0.92 3.76 -1.21 0 -0.9 -3.76c0.02,0.43 0.03,0.82 0.04,1.17 0.01,0.35 0.01,0.62 0.01,0.81l0 1.78 -1.13 0z"/>
  </g>
 </g>
</svg>
